<!-- Save as img/github.svg -->
<svg role="img" viewBox="0 0 24 24" xmlns="http://www.w3.org/2000/svg" fill="#000000">
  <title>GitHub</title>
  <path d="M12 .297c-6.63 0-12 5.373-12 12 0 5.303 
    3.438 9.8 8.205 11.387.6.113.82-.258.82-.577 
    0-.285-.01-1.04-.015-2.04-3.338.724-4.042-1.61-4.042-1.61 
    -.546-1.387-1.333-1.757-1.333-1.757-1.09-.744.083-.729.083-.729 
    1.205.084 1.84 1.236 1.84 1.236 1.07 1.835 2.807 1.304 
    3.492.997.108-.776.418-1.304.762-1.604-2.665-.3-5.466-1.332-5.466-5.93 
    0-1.31.47-2.38 1.235-3.22-.135-.303-.54-1.523.105-3.176 
    0 0 1.005-.322 3.3 1.23a11.48 11.48 0 013.003-.404c1.02.005 
    2.045.138 3.003.404 2.28-1.552 3.285-1.23 3.285-1.23 
    .645 1.653.24 2.873.12 3.176.765.84 
    1.23 1.91 1.23 3.22 0 4.61-2.805 5.625-5.475 
    5.92.435.372.81 1.102.81 2.222 
    0 1.606-.015 2.896-.015 3.286 0 .315.21.694.825.576C20.565 
    22.092 24 17.592 24 12.297c0-6.627-5.373-12-12-12"/>
</svg>
